<?xml version="1.0" encoding="UTF-8" standalone="no"?>
<!-- Created with Inkscape (http://www.inkscape.org/) -->

<svg
   xmlns:dc="http://purl.org/dc/elements/1.1/"
   xmlns:cc="http://creativecommons.org/ns#"
   xmlns:rdf="http://www.w3.org/1999/02/22-rdf-syntax-ns#"
   xmlns:svg="http://www.w3.org/2000/svg"
   xmlns="http://www.w3.org/2000/svg"
   xmlns:sodipodi="http://sodipodi.sourceforge.net/DTD/sodipodi-0.dtd"
   xmlns:inkscape="http://www.inkscape.org/namespaces/inkscape"
   width="81.023849mm"
   height="18.617849mm"
   viewBox="0 0 81.023849 18.617849"
   version="1.1"
   id="svg980"
   inkscape:version="0.92.2 (5c3e80d, 2017-08-06)"
   sodipodi:docname="NovayHeader_Dark.svg">
  <defs
     id="defs974" />
  <sodipodi:namedview
     id="base"
     pagecolor="#ffffff"
     bordercolor="#666666"
     borderopacity="1.0"
     inkscape:pageopacity="0.0"
     inkscape:pageshadow="2"
     inkscape:zoom="2.8"
     inkscape:cx="162.55658"
     inkscape:cy="105.96251"
     inkscape:document-units="mm"
     inkscape:current-layer="layer4"
     showgrid="false"
     inkscape:window-width="1920"
     inkscape:window-height="1017"
     inkscape:window-x="-8"
     inkscape:window-y="-8"
     inkscape:window-maximized="1" />
  <metadata
     id="metadata977">
    <rdf:RDF>
      <cc:Work
         rdf:about="">
        <dc:format>image/svg+xml</dc:format>
        <dc:type
           rdf:resource="http://purl.org/dc/dcmitype/StillImage" />
        <dc:title></dc:title>
      </cc:Work>
    </rdf:RDF>
  </metadata>
  <g
     inkscape:groupmode="layer"
     id="layer3"
     inkscape:label="Background"
     style="display:none"
     transform="translate(-73.190652,-182.73873)">
    <rect
       style="opacity:1;fill:#19223d;fill-opacity:0.91712706;stroke-width:2;stroke-miterlimit:4;stroke-dasharray:none"
       id="rect1606"
       width="88.867119"
       height="24.989712"
       x="68.420998"
       y="179.0005" />
    <path
       style="display:inline;opacity:1;fill:#f2f2f2;fill-opacity:1;stroke-width:1.90894973;stroke-miterlimit:4;stroke-dasharray:none"
       d="m 258.63946,818.10681 v -47.09836 h 167.81159 167.81159 v 47.09836 47.09836 H 426.45105 258.63946 Z m 232.68083,35.41847 c 15.54604,-51.50578 17.85979,-59.31877 17.7082,-59.79636 -0.0786,-0.24775 -0.33751,-0.53677 -0.57529,-0.64226 -0.23778,-0.10549 -3.01461,-0.24173 -6.17073,-0.30277 l -5.73839,-0.11098 -0.25489,0.59512 c -0.14019,0.32731 -1.97128,6.04994 -4.06909,12.71695 -2.0978,6.667 -3.84183,12.14973 -3.87561,12.18383 -0.0652,0.0658 -4.69155,-15.42795 -6.49239,-21.74311 l -1.0696,-3.7509 -5.82626,0.0965 c -5.98919,0.0992 -6.96267,0.25921 -6.96267,1.14428 0,0.59183 6.78411,24.10278 8.47423,29.36823 1.91278,5.95911 3.81198,10.73926 4.65052,11.70503 1.85178,2.13277 1.8812,1.90152 -1.75598,13.80132 -1.6403,5.36658 -1.74074,5.95675 -1.05107,6.17564 1.16942,0.37116 3.92455,0.58051 8.03917,0.61087 l 4.341,0.032 z m 64.57519,-2.61764 c 13.73176,-2.35315 24.28253,-12.8231 26.6573,-26.45311 0.54465,-3.12592 0.35075,-9.00527 -0.39672,-12.02983 -1.54576,-6.25472 -4.4129,-11.23131 -9.04104,-15.69285 -6.1587,-5.937 -13.95255,-9.06272 -22.66775,-9.09089 -10.04493,-0.0325 -19.20941,4.14446 -25.36081,11.55878 -6.41624,7.73354 -8.80454,17.30497 -6.73421,26.98829 2.67102,12.49287 13.23421,22.42916 26.28665,24.72661 2.82012,0.49639 8.33908,0.49296 11.25658,-0.007 z M 288.7841,835.34254 c 0.084,-1.28479 0.22706,-8.79359 0.31798,-16.68623 0.13394,-11.62777 0.22628,-14.28682 0.48674,-14.01587 0.1768,0.18391 3.44543,5.12983 7.26364,10.99093 7.968,12.2312 10.54131,15.89691 13.03116,18.56301 2.34923,2.51553 3.58652,3.08442 6.71334,3.08671 1.98113,0.002 2.46191,-0.09 3.74591,-0.7126 0.81018,-0.39284 2.20156,-1.39574 3.09195,-2.22865 2.35259,-2.20073 2.38192,-2.33898 2.64075,-12.44496 0.1174,-4.58357 0.22034,-14.72613 0.22878,-22.53903 l 0.0153,-14.20527 h -6.18719 -6.18718 l -0.011,12.94258 c -0.0109,12.82306 -0.20509,17.93165 -0.70045,18.42701 -0.33507,0.33507 -1.55774,-1.33623 -5.97744,-8.1707 -5.99608,-9.27214 -12.15428,-18.46368 -13.42794,-20.04216 -0.87739,-1.08736 -1.6505,-1.72908 -2.73786,-2.27253 -1.3551,-0.67726 -1.80932,-0.76668 -4.29808,-0.84615 -4.42619,-0.14134 -5.30981,0.28421 -8.531,4.10847 l -1.69186,2.00862 v 23.1864 23.18639 h 6.03088 6.03088 z m 109.84012,1.23653 c 3.54556,-1.74099 5.32642,-4.6157 8.07985,-13.04269 2.48607,-7.60871 9.38241,-30.77807 9.21185,-30.94864 -0.231,-0.23099 -11.08073,-0.26839 -11.896,-0.041 -0.97159,0.271 -1.14848,0.7232 -4.56508,11.67047 -1.60391,5.13915 -3.2438,10.19086 -3.6442,11.22602 -0.62924,1.62677 -0.76372,1.81521 -0.99122,1.38896 -0.44511,-0.83393 -2.42295,-7.41553 -4.84913,-16.13635 -1.27301,-4.57578 -2.38125,-8.42749 -2.46275,-8.55936 -0.19935,-0.32255 -10.51924,-0.0283 -11.75352,0.33514 -0.52086,0.15336 -0.94702,0.41939 -0.94702,0.59116 0,1.26132 10.27016,36.50866 11.35325,38.96454 0.88657,2.01025 2.83757,3.78755 5.28711,4.81637 2.05762,0.86422 5.10693,0.75178 7.17686,-0.26462 z m 62.23722,-14.11598 -0.0652,-14.45781 h -6.55538 -6.55538 l 0.075,7.85398 0.075,7.85397 -1.34834,0.16192 c -0.7416,0.0891 -3.82007,0.1629 -6.84105,0.16411 l -5.49271,0.002 v -1.60197 -1.60199 l 4.82869,-0.15415 c 2.65578,-0.0848 4.88665,-0.21213 4.95749,-0.28297 0.0708,-0.0708 -1.68519,-2.88872 -3.9023,-6.26195 l -4.03111,-6.13314 -4.77759,0.0274 c -5.32195,0.0306 -6.38027,0.22132 -7.98683,1.43959 -1.89088,1.43385 -2.00555,2.12377 -1.98017,11.91286 0.0316,12.19198 0.21461,12.95341 3.51899,14.64209 1.43512,0.7334 3.60658,0.82603 20.17091,0.86045 l 15.9751,0.0332 z m -94.64074,13.7476 c 1.28126,-0.41974 2.68912,-1.67838 3.54336,-3.16778 l 0.74505,-1.29904 0.002,-12.31124 0.002,-12.31123 h -6.56599 -6.56599 v 8.08122 8.08122 h -6.81853 -6.81853 v -8.08122 -8.08122 h -6.57703 -6.57702 l 0.0742,12.56377 c 0.0829,14.03711 -0.0161,13.2664 1.92951,15.02416 1.4748,1.33239 1.97545,1.5381 4.20557,1.72802 3.44825,0.29365 28.4197,0.10127 29.42069,-0.22666 z m 94.4087,-35.33961 c -0.18681,-7.94839 -0.66965,-8.14324 -20.16248,-8.13631 l -10.98541,0.004 -1.63067,2.45627 c -2.88846,4.35087 -5.56667,8.70304 -5.56667,9.04601 0,0.4662 1.20896,0.49799 21.17653,0.55677 l 17.26219,0.0508 z m -90.67713,-0.25254 c -0.17502,-5.33938 -1.23733,-7.55488 -3.98987,-8.32106 -1.84465,-0.51346 -20.76175,-0.76827 -26.51074,-0.35709 -5.60252,0.40071 -7.10382,0.87069 -8.1587,2.5541 -0.5041,0.80448 -0.56141,1.27525 -0.63786,5.24017 l -0.084,4.35628 h 19.7475 19.74749 z"
       id="path1690"
       inkscape:connector-curvature="0"
       transform="scale(0.26458333)" />
  </g>
  <g
     inkscape:groupmode="layer"
     id="layer4"
     inkscape:label="Secondary Background"
     transform="translate(-73.190652,-182.73873)">
    <ellipse
       style="display:inline;opacity:1;fill:#ececec;fill-opacity:0.91712706;stroke-width:1.91716063;stroke-miterlimit:4;stroke-dasharray:none"
       id="path1610"
       cx="145.59506"
       cy="191.82944"
       rx="8.619441"
       ry="8.4189978" />
  </g>
  <g
     inkscape:groupmode="layer"
     id="layer2"
     inkscape:label="Icon"
     style="display:inline"
     transform="translate(-73.190652,-182.73873)">
    <path
       style="display:inline;opacity:1;fill:#d8d137;fill-opacity:1;stroke-width:0.49026302;stroke-miterlimit:4;stroke-dasharray:none"
       d="m 144.01809,198.41688 c -0.81535,-0.12411 -1.32734,-0.36483 -1.32734,-0.36483 -0.69021,-0.27856 -1.27326,-0.72224 -1.85567,-1.21616 -1.04805,-0.88884 -1.46804,-1.66897 -1.8453,-3.83232 -0.15613,-0.89523 -0.0908,-1.11931 -0.0563,-1.85868 0.0409,-0.87383 0.39321,-1.33151 0.49866,-1.33151 0,0 -0.0164,0.81116 0.008,0.96687 0.0717,0.45514 0.29105,1.49543 0.52957,1.98156 0.3917,0.79828 0.86975,1.39077 1.79648,2.22655 0.58604,0.52851 0.81978,0.65652 1.57224,0.86103 0.96514,0.26233 1.03899,0.26815 1.77981,0.14035 1.08627,-0.18741 2.4616,-0.33037 3.61591,-1.73842 0.46217,-0.48052 1.15095,-1.80474 1.18966,-2.89777 0.009,-1.17085 -0.1649,-1.98092 -0.90357,-2.65824 -0.64361,-0.41007 -1.41273,-0.58405 -1.86525,-0.58405 -0.43268,0 -0.97479,0.0665 -1.32366,0.27072 -0.35479,0.20763 -0.96435,0.75593 -0.89417,1.37458 0.093,0.60188 0.40813,1.0605 1.02693,1.0983 0.52323,0.0319 0.83216,-0.54598 0.83369,-0.9433 9e-4,-0.37147 0.10614,-0.22963 0.21692,0.29389 0.0329,0.35598 0.0339,0.43844 -0.0494,0.64471 -0.10371,0.18759 -0.20199,0.38447 -0.42887,0.49804 -0.22033,0.12466 -0.23972,0.14986 -0.78039,0.13224 -0.56422,-0.0183 -0.75514,-0.15767 -1.12585,-0.36557 -0.51868,-0.29096 -0.82883,-0.69508 -0.93218,-1.40536 -0.17977,-1.23551 0.12659,-2.07863 1.38446,-2.70814 1.04103,-0.52105 2.24612,-0.81363 3.65621,-0.60014 1.12721,0.24767 1.72678,0.68092 2.54971,1.1848 0.46826,0.36765 0.80362,0.82286 1.1168,1.51473 0.29441,0.74799 0.32597,1.39772 0.32292,2.13496 -0.004,0.73102 -0.07,1.24062 -0.36522,2.06039 -0.62783,1.74341 -1.53924,3.19956 -3.12938,4.09307 -0.75799,0.42591 -1.81212,0.85534 -2.95111,1.04776 -0.98599,0.13434 -1.21354,0.10847 -2.2645,-0.0201 z"
       id="path1633-11-7"
       inkscape:connector-curvature="0"
       sodipodi:nodetypes="cccccsccccccccscccccccccsccccccsccc" />
    <path
       style="display:inline;opacity:1;fill:#000080;fill-opacity:1;stroke-width:0.49026302;stroke-miterlimit:4;stroke-dasharray:none"
       d="m 147.902,185.1564 c 0.92473,0.14142 1.18934,0.36539 1.61255,0.5362 0.69021,0.31529 0.98198,0.52028 1.63721,1.02644 0.96309,0.98677 1.26578,1.7716 1.61373,3.43147 0.12953,1.0552 0.12426,1.27239 -0.006,2.08817 -0.25128,0.99413 -0.46334,1.46616 -0.56878,1.46616 0,0 -0.008,-0.94581 -0.0325,-1.10152 -0.0717,-0.45514 -0.16969,-1.34857 -0.35967,-2.03052 -0.22006,-0.90216 -0.45709,-1.70903 -1.38382,-2.54481 -0.58604,-0.52851 -1.20815,-0.85236 -1.96062,-1.05687 -0.96513,-0.26233 -1.54874,-0.2192 -2.28956,-0.0914 -1.08627,0.18739 -2.07738,0.77521 -3.09437,2.0794 -0.46217,0.48053 -1.35693,1.97785 -1.39563,3.07087 -0.009,1.17084 0.16489,1.98091 0.90356,2.65824 0.64361,0.41007 1.41273,0.58405 1.86525,0.58405 0.43268,0 0.97479,-0.0665 1.32367,-0.27072 0.35478,-0.20763 0.96435,-0.75593 0.89417,-1.37457 -0.093,-0.60189 -0.40814,-1.06051 -1.02694,-1.09832 -0.52323,-0.0319 -0.83216,0.54599 -0.83369,0.94332 -9.1e-4,0.37147 -0.11952,0.24619 -0.23031,-0.27732 0,0 -0.0569,-0.26375 0.008,-0.52664 0.0491,-0.15545 0.23839,-0.48851 0.37424,-0.56538 0.22034,-0.12465 0.34896,-0.21716 0.88963,-0.19954 0.56423,0.0183 0.75514,0.15766 1.12585,0.36557 0.51868,0.29096 0.82883,0.69507 0.93218,1.40535 0.17977,1.23551 -0.12658,2.07862 -1.38446,2.70815 -1.04103,0.52104 -2.24612,0.81362 -3.65621,0.60014 -1.12722,-0.24767 -1.55514,-0.36932 -2.37807,-0.87321 -0.56534,-0.50229 -0.86602,-0.71828 -1.31271,-1.83857 -0.2944,-0.74798 -0.42307,-1.38547 -0.42002,-2.12271 0.004,-0.73104 0.0942,-1.24062 0.3895,-2.0604 0.62783,-1.74341 2.07326,-3.19956 3.6634,-4.09307 0.75798,-0.42592 1.15067,-0.59829 2.28965,-0.79071 1.44719,-0.24449 1.75968,-0.18802 2.81064,-0.0473 z"
       id="path1633-111-4"
       inkscape:connector-curvature="0"
       sodipodi:nodetypes="cccccsccccccccscccccccccsccccccsccc" />
  </g>
  <g
     inkscape:label="Text"
     inkscape:groupmode="layer"
     id="layer1"
     style="display:inline"
     transform="translate(-73.190652,-182.73873)">
    <flowRoot
       xml:space="preserve"
       id="flowRoot1525"
       style="font-style:normal;font-weight:normal;font-size:85.33333588px;line-height:1.25;font-family:sans-serif;letter-spacing:0px;word-spacing:0px;fill:#000000;fill-opacity:1;stroke:none"
       transform="scale(0.26458333)"><flowRegion
         id="flowRegion1527"><rect
           id="rect1529"
           width="165.66502"
           height="89.90358"
           x="305.06607"
           y="544.7124" /></flowRegion><flowPara
         id="flowPara1531"></flowPara></flowRoot>    <path
       style="opacity:1;fill:#000080;fill-opacity:1;stroke-width:2.02030516;stroke-miterlimit:4;stroke-dasharray:none"
       d="m 73.190692,190.51005 v -6.12669 l 0.69193,-0.82232 c 0.57512,-0.68349 0.88597,-0.82231 1.84128,-0.82231 0.71337,0 1.35154,0.17741 1.68239,0.46772 0.29317,0.25724 1.52577,2.03125 2.73911,3.94222 1.21334,1.91098 2.36991,3.65062 2.57017,3.86587 0.3084,0.33149 0.36409,-0.27153 0.36409,-3.94223 v -4.33358 h 1.60362 1.60362 v 6.15934 c 0,6.15501 -5.3e-4,6.15981 -0.64516,6.80451 -0.84901,0.84901 -1.84535,1.07448 -2.87089,0.64968 -0.63889,-0.26463 -1.46283,-1.31315 -3.53614,-4.49995 l -2.70315,-4.15491 -0.0733,4.46967 -0.0733,4.46967 h -1.59715 -1.59716 z"
       id="path1537"
       inkscape:connector-curvature="0" />
    <path
       style="opacity:1;fill:#000080;fill-opacity:1;stroke-width:2.02030516;stroke-miterlimit:4;stroke-dasharray:none"
       d="m 87.478924,186.53942 c 0,-1.95144 0.18601,-2.02361 5.21569,-2.02361 4.21875,0 4.390627,0.0213 4.791767,0.59401 0.22883,0.3267 0.416047,1.04833 0.416047,1.60362 v 1.00961 h -5.211744 -5.21176 z"
       id="path1539"
       inkscape:connector-curvature="0" />
    <path
       style="opacity:1;fill:#000080;fill-opacity:1;stroke-width:2.02030516;stroke-miterlimit:4;stroke-dasharray:none"
       d="m 111.71427,187.82867 c 0,-0.0758 0.43798,-0.79739 0.97328,-1.60362 l 0.97329,-1.46587 h 3.66251 c 4.21855,0 4.54716,0.15121 4.54716,2.09239 v 1.11485 h -5.07812 c -2.79296,0 -5.07812,-0.062 -5.07812,-0.13775 z"
       id="path1543"
       inkscape:connector-curvature="0" />
    <path
       style="opacity:1;fill:#000080;fill-opacity:1;stroke-width:2.02030516;stroke-miterlimit:4;stroke-dasharray:none"
       d="m 103.15899,196.21775 c -0.38396,-0.20867 -0.83269,-0.71501 -0.9972,-1.12519 -0.34736,-0.86614 -2.981929,-9.94713 -2.981929,-10.27832 0,-0.12254 0.75396,-0.22281 1.675479,-0.22281 h 1.67547 l 0.92537,3.34087 c 0.50895,1.83748 0.98777,3.34048 1.06404,3.34 0.0763,-5.3e-4 0.55921,-1.39444 1.07321,-3.09767 0.514,-1.70323 1.00604,-3.21247 1.09342,-3.35385 0.0874,-0.14138 0.88467,-0.22076 1.77176,-0.17639 l 1.61289,0.0807 -1.56025,5.21175 c -1.3356,4.46134 -1.67777,5.31759 -2.37644,5.94675 -0.90577,0.81567 -1.88714,0.92587 -2.97582,0.33418 z"
       id="path1545"
       inkscape:connector-curvature="0" />
    <path
       style="opacity:1;fill:#000080;fill-opacity:1;stroke-width:2.02030516;stroke-miterlimit:4;stroke-dasharray:none"
       d="m 126.43858,201.10311 c 0,-0.13941 0.30987,-1.23438 0.6886,-2.43328 0.68625,-2.17238 0.6868,-2.18175 0.16207,-2.75331 -0.30919,-0.33678 -1.09632,-2.55922 -1.907,-5.38435 -0.75927,-2.64597 -1.44166,-5.02133 -1.51644,-5.27858 -0.11958,-0.4114 0.0731,-0.46772 1.60035,-0.46772 h 1.7363 l 0.43762,1.5368 c 0.24069,0.84524 0.69098,2.3787 1.00064,3.40769 l 0.56303,1.87088 1.07466,-3.40768 1.07466,-3.40769 h 1.7166 c 1.5046,0 1.70107,0.0578 1.59083,0.46772 -0.0692,0.25725 -1.18698,3.98566 -2.48399,8.28536 l -2.35822,7.81763 h -1.68986 c -0.92942,0 -1.68985,-0.11406 -1.68985,-0.25347 z"
       id="path1549"
       inkscape:connector-curvature="0" />
    <path
       style="opacity:1;fill:#d8d137;fill-opacity:1;stroke-width:0.50507629;stroke-miterlimit:4;stroke-dasharray:none"
       d="m 88.777806,196.29077 c -0.331616,-0.0807 -0.597588,-0.24766 -0.863436,-0.54193 -0.452213,-0.50055 -0.439505,-0.3867 -0.439505,-3.93702 v -3.20938 h 1.737252 1.737254 v 2.13815 2.13816 h 1.804069 1.804067 v -2.13816 -2.13815 h 1.737254 1.737252 l -7.94e-4,3.19052 -7.94e-4,3.19053 -0.1573,0.33781 c -0.08687,0.18655 -0.287211,0.449 -0.447445,0.58615 -0.521935,0.44676 -0.520142,0.44659 -4.701355,0.43896 -2.060461,-0.004 -3.836524,-0.0288 -3.946771,-0.0556 z"
       id="path1551"
       inkscape:connector-curvature="0" />
    <path
       style="opacity:1;fill:#d8d137;fill-opacity:1;stroke-width:3.81789947;stroke-miterlimit:4;stroke-dasharray:none"
       d="m 424.91055,741.52412 c -3.3833,-1.72518 -3.52863,-2.26533 -3.63691,-13.51743 -0.10653,-11.06995 0.032,-11.74536 2.74935,-13.40223 1.3149,-0.80175 2.55103,-0.98159 6.7577,-0.98313 l 5.14843,-0.002 4.05963,6.18719 4.05963,6.18718 -5.04118,0.14394 -5.04119,0.14394 v 1.76435 1.76435 l 6.9448,-0.14052 6.9448,-0.14052 -0.0482,-7.95496 -0.0482,-7.95495 h 6.48794 6.48794 v 14.39468 14.39467 l -17.04633,-7.8e-4 c -15.23078,-7.1e-4 -17.23078,-0.0948 -18.77818,-0.88389 z"
       id="path1586"
       inkscape:connector-curvature="0"
       transform="scale(0.26458333)" />
  </g>
</svg>
