<?xml version="1.0" encoding="UTF-8" standalone="no"?>
<!-- Created with Inkscape (http://www.inkscape.org/) -->

<svg
   xmlns:dc="http://purl.org/dc/elements/1.1/"
   xmlns:cc="http://creativecommons.org/ns#"
   xmlns:rdf="http://www.w3.org/1999/02/22-rdf-syntax-ns#"
   xmlns:svg="http://www.w3.org/2000/svg"
   xmlns="http://www.w3.org/2000/svg"
   xmlns:sodipodi="http://sodipodi.sourceforge.net/DTD/sodipodi-0.dtd"
   xmlns:inkscape="http://www.inkscape.org/namespaces/inkscape"
   width="104.91862mm"
   height="95.942947mm"
   viewBox="0 0 104.91862 95.942946"
   version="1.1"
   id="svg8"
   inkscape:version="0.92.2 (5c3e80d, 2017-08-06)"
   sodipodi:docname="NovayIcon.svg"
   inkscape:export-filename="C:\Users\Danie\OneDrive\Documents\Websites\novaytechnologies\images\NovayIcon.png"
   inkscape:export-xdpi="96"
   inkscape:export-ydpi="96">
  <defs
     id="defs2">
    <inkscape:perspective
       sodipodi:type="inkscape:persp3d"
       inkscape:vp_x="0 : 148.49999 : 1"
       inkscape:vp_y="0 : 999.99995 : 0"
       inkscape:vp_z="210 : 148.49999 : 1"
       inkscape:persp3d-origin="105 : 98.999995 : 1"
       id="perspective1569" />
  </defs>
  <sodipodi:namedview
     id="base"
     pagecolor="#ffffff"
     bordercolor="#666666"
     borderopacity="1.0"
     inkscape:pageopacity="0.0"
     inkscape:pageshadow="2"
     inkscape:zoom="1.4"
     inkscape:cx="64.596139"
     inkscape:cy="174.20843"
     inkscape:document-units="mm"
     inkscape:current-layer="layer1"
     showgrid="false"
     inkscape:window-width="1920"
     inkscape:window-height="1017"
     inkscape:window-x="-8"
     inkscape:window-y="-8"
     inkscape:window-maximized="1" />
  <metadata
     id="metadata5">
    <rdf:RDF>
      <cc:Work
         rdf:about="">
        <dc:format>image/svg+xml</dc:format>
        <dc:type
           rdf:resource="http://purl.org/dc/dcmitype/StillImage" />
        <dc:title></dc:title>
      </cc:Work>
    </rdf:RDF>
  </metadata>
  <g
     inkscape:label="Circle"
     inkscape:groupmode="layer"
     id="layer1"
     transform="translate(-49.341413,-86.315285)">
    <path
       style="fill:#000080;stroke-width:0.37692314"
       d="m 96.6394,182.05772 c -11.386793,-1.30108 -21.852828,-6.12268 -29.975446,-13.80939 -7.487788,-7.08596 -12.27382,-15.69568 -14.210594,-25.56386 -0.86546,-4.40965 -0.865875,-12.34268 -7.93e-4,-16.74971 3.76496,-19.18199 19.169006,-34.174542 39.551013,-38.49447 4.56839,-0.968262 16.25013,-0.955295 20.76881,0.02307 10.67105,2.310422 19.30348,7.008434 26.57152,14.46096 9.03101,9.26027 13.51384,20.00236 13.51384,32.38297 0,12.64639 -4.76788,23.94642 -13.96548,33.09862 -9.25145,9.20578 -21.41795,14.36047 -34.96098,14.81226 -2.50645,0.0836 -5.78776,0.0114 -7.2918,-0.16044 z"
       id="path13"
       inkscape:connector-curvature="0" />
    <path
       style="opacity:0;fill:#808000;fill-opacity:1;stroke-width:1.42857146"
       d="M 410.2685,735.23506 C 344.57493,723.70195 291.5949,684.92203 265.15535,629.01623 c -18.29916,-38.69311 -21.60349,-85.16638 -8.89649,-125.12304 9.28257,-29.18867 25.22722,-54.29607 48.66908,-76.63726 21.93285,-20.90302 46.05066,-35.1281 75.56106,-44.56713 19.6128,-6.27324 29.83022,-7.56491 59.7795,-7.55719 36.43489,0.009 58.60973,4.96176 87.60737,19.56559 47.63012,23.98753 84.22686,68.36832 96.74822,117.32633 10.92798,42.72803 4.06227,92.72877 -17.87165,130.1533 -27.11978,46.27286 -72.82995,79.00846 -126.13554,90.33264 -16.0178,3.40282 -57.3658,5.0048 -70.3484,2.72559 z M 389.97586,630.21822 c 5.6414,-1.73973 8.32077,-27.14656 10.05557,-95.35043 l 0.95136,-37.40317 4.90533,8.57143 c 14.52358,25.37808 70.71634,118.42055 73.41367,121.55638 2.49743,2.90343 3.94851,3.46676 6.97401,2.70742 4.86017,-1.21983 5.07204,-3.12193 6.04446,-54.2638 1.01363,-53.30905 4.71823,-83.12511 12.13433,-97.66185 3.1376,-6.1502 3.02734,-6.41267 -3.33429,-7.93727 -5.39036,-1.29183 -11.48981,1.29914 -13.51333,5.74028 -2.5191,5.52882 -4.45681,26.58036 -4.46961,48.55839 -0.007,11.07047 -0.4334,31.7696 -0.94879,45.99806 l -0.93705,25.86993 -7.3483,-11.71234 c -10.20846,-16.27115 -33.66688,-56.01183 -48.65536,-82.42663 -17.65477,-31.11372 -17.91627,-31.42833 -26.12349,-31.42968 -3.69215,-6.1e-4 -12.04892,1.05807 -18.5706,2.35262 -10.63563,2.11118 -11.81337,2.66336 -11.42857,5.35826 0.3821,2.67594 1.4315,3.02292 9.59582,3.17282 12.16242,0.22331 12.97605,1.42921 12.97605,19.23197 0,40.85236 -5.49993,93.25242 -12.2228,116.45168 -2.79385,9.64097 -3.21062,12.72444 -1.8348,13.57474 1.60647,0.99284 7.49081,0.5355 12.33639,-0.95881 z"
       id="path1525"
       inkscape:connector-curvature="0"
       transform="scale(0.26458333)" />
    <path
       style="opacity:0;fill:#808000;fill-opacity:1;stroke-width:1.42857146"
       d="M 410.2685,735.23506 C 344.57493,723.70195 291.5949,684.92203 265.15535,629.01623 c -18.29916,-38.69311 -21.60349,-85.16638 -8.89649,-125.12304 9.28257,-29.18867 25.22722,-54.29607 48.66908,-76.63726 21.93285,-20.90302 46.05066,-35.1281 75.56106,-44.56713 19.6128,-6.27324 29.83022,-7.56491 59.7795,-7.55719 36.43489,0.009 58.60973,4.96176 87.60737,19.56559 47.63012,23.98753 84.22686,68.36832 96.74822,117.32633 10.92798,42.72803 4.06227,92.72877 -17.87165,130.1533 -27.11978,46.27286 -72.82995,79.00846 -126.13554,90.33264 -16.0178,3.40282 -57.3658,5.0048 -70.3484,2.72559 z M 389.97586,630.21822 c 5.6414,-1.73973 8.32077,-27.14656 10.05557,-95.35043 l 0.95136,-37.40317 4.90533,8.57143 c 14.52358,25.37808 70.71634,118.42055 73.41367,121.55638 2.49743,2.90343 3.94851,3.46676 6.97401,2.70742 4.86017,-1.21983 5.07204,-3.12193 6.04446,-54.2638 1.01363,-53.30905 4.71823,-83.12511 12.13433,-97.66185 3.1376,-6.1502 3.02734,-6.41267 -3.33429,-7.93727 -5.39036,-1.29183 -11.48981,1.29914 -13.51333,5.74028 -2.5191,5.52882 -4.45681,26.58036 -4.46961,48.55839 -0.007,11.07047 -0.4334,31.7696 -0.94879,45.99806 l -0.93705,25.86993 -7.3483,-11.71234 c -10.20846,-16.27115 -33.66688,-56.01183 -48.65536,-82.42663 -17.65477,-31.11372 -17.91627,-31.42833 -26.12349,-31.42968 -3.69215,-6.1e-4 -12.04892,1.05807 -18.5706,2.35262 -10.63563,2.11118 -11.81337,2.66336 -11.42857,5.35826 0.3821,2.67594 1.4315,3.02292 9.59582,3.17282 12.16242,0.22331 12.97605,1.42921 12.97605,19.23197 0,40.85236 -5.49993,93.25242 -12.2228,116.45168 -2.79385,9.64097 -3.21062,12.72444 -1.8348,13.57474 1.60647,0.99284 7.49081,0.5355 12.33639,-0.95881 z"
       id="path1527"
       inkscape:connector-curvature="0"
       transform="scale(0.26458333)" />
    <path
       style="opacity:0;fill:#808000;fill-opacity:1;stroke-width:1.42857146"
       d="M 410.2685,735.23506 C 344.57493,723.70195 291.5949,684.92203 265.15535,629.01623 c -18.29916,-38.69311 -21.60349,-85.16638 -8.89649,-125.12304 9.28257,-29.18867 25.22722,-54.29607 48.66908,-76.63726 21.93285,-20.90302 46.05066,-35.1281 75.56106,-44.56713 19.6128,-6.27324 29.83022,-7.56491 59.7795,-7.55719 36.43489,0.009 58.60973,4.96176 87.60737,19.56559 47.63012,23.98753 84.22686,68.36832 96.74822,117.32633 10.92798,42.72803 4.06227,92.72877 -17.87165,130.1533 -27.11978,46.27286 -72.82995,79.00846 -126.13554,90.33264 -16.0178,3.40282 -57.3658,5.0048 -70.3484,2.72559 z M 389.97586,630.21822 c 5.6414,-1.73973 8.32077,-27.14656 10.05557,-95.35043 l 0.95136,-37.40317 4.90533,8.57143 c 14.52358,25.37808 70.71634,118.42055 73.41367,121.55638 2.49743,2.90343 3.94851,3.46676 6.97401,2.70742 4.86017,-1.21983 5.07204,-3.12193 6.04446,-54.2638 1.01363,-53.30905 4.71823,-83.12511 12.13433,-97.66185 3.1376,-6.1502 3.02734,-6.41267 -3.33429,-7.93727 -5.39036,-1.29183 -11.48981,1.29914 -13.51333,5.74028 -2.5191,5.52882 -4.45681,26.58036 -4.46961,48.55839 -0.007,11.07047 -0.4334,31.7696 -0.94879,45.99806 l -0.93705,25.86993 -7.3483,-11.71234 c -10.20846,-16.27115 -33.66688,-56.01183 -48.65536,-82.42663 -17.65477,-31.11372 -17.91627,-31.42833 -26.12349,-31.42968 -3.69215,-6.1e-4 -12.04892,1.05807 -18.5706,2.35262 -10.63563,2.11118 -11.81337,2.66336 -11.42857,5.35826 0.3821,2.67594 1.4315,3.02292 9.59582,3.17282 12.16242,0.22331 12.97605,1.42921 12.97605,19.23197 0,40.85236 -5.49993,93.25242 -12.2228,116.45168 -2.79385,9.64097 -3.21062,12.72444 -1.8348,13.57474 1.60647,0.99284 7.49081,0.5355 12.33639,-0.95881 z"
       id="path1529"
       inkscape:connector-curvature="0"
       transform="scale(0.26458333)" />
    <path
       style="opacity:0;fill:#808000;fill-opacity:1;stroke-width:1.42857146"
       d="M 410.2685,735.23506 C 344.57493,723.70195 291.5949,684.92203 265.15535,629.01623 c -18.29916,-38.69311 -21.60349,-85.16638 -8.89649,-125.12304 9.28257,-29.18867 25.22722,-54.29607 48.66908,-76.63726 21.93285,-20.90302 46.05066,-35.1281 75.56106,-44.56713 19.6128,-6.27324 29.83022,-7.56491 59.7795,-7.55719 36.43489,0.009 58.60973,4.96176 87.60737,19.56559 47.63012,23.98753 84.22686,68.36832 96.74822,117.32633 10.92798,42.72803 4.06227,92.72877 -17.87165,130.1533 -27.11978,46.27286 -72.82995,79.00846 -126.13554,90.33264 -16.0178,3.40282 -57.3658,5.0048 -70.3484,2.72559 z M 389.97586,630.21822 c 5.6414,-1.73973 8.32077,-27.14656 10.05557,-95.35043 l 0.95136,-37.40317 4.90533,8.57143 c 14.52358,25.37808 70.71634,118.42055 73.41367,121.55638 2.49743,2.90343 3.94851,3.46676 6.97401,2.70742 4.86017,-1.21983 5.07204,-3.12193 6.04446,-54.2638 1.01363,-53.30905 4.71823,-83.12511 12.13433,-97.66185 3.1376,-6.1502 3.02734,-6.41267 -3.33429,-7.93727 -5.39036,-1.29183 -11.48981,1.29914 -13.51333,5.74028 -2.5191,5.52882 -4.45681,26.58036 -4.46961,48.55839 -0.007,11.07047 -0.4334,31.7696 -0.94879,45.99806 l -0.93705,25.86993 -7.3483,-11.71234 c -10.20846,-16.27115 -33.66688,-56.01183 -48.65536,-82.42663 -17.65477,-31.11372 -17.91627,-31.42833 -26.12349,-31.42968 -3.69215,-6.1e-4 -12.04892,1.05807 -18.5706,2.35262 -10.63563,2.11118 -11.81337,2.66336 -11.42857,5.35826 0.3821,2.67594 1.4315,3.02292 9.59582,3.17282 12.16242,0.22331 12.97605,1.42921 12.97605,19.23197 0,40.85236 -5.49993,93.25242 -12.2228,116.45168 -2.79385,9.64097 -3.21062,12.72444 -1.8348,13.57474 1.60647,0.99284 7.49081,0.5355 12.33639,-0.95881 z"
       id="path1531"
       inkscape:connector-curvature="0"
       transform="scale(0.26458333)" />
    <path
       style="opacity:0;fill:#808000;fill-opacity:1;stroke-width:1.42857146"
       d="M 410.2685,735.23506 C 344.57493,723.70195 291.5949,684.92203 265.15535,629.01623 c -18.29916,-38.69311 -21.60349,-85.16638 -8.89649,-125.12304 9.28257,-29.18867 25.22722,-54.29607 48.66908,-76.63726 21.93285,-20.90302 46.05066,-35.1281 75.56106,-44.56713 19.6128,-6.27324 29.83022,-7.56491 59.7795,-7.55719 36.43489,0.009 58.60973,4.96176 87.60737,19.56559 47.63012,23.98753 84.22686,68.36832 96.74822,117.32633 10.92798,42.72803 4.06227,92.72877 -17.87165,130.1533 -27.11978,46.27286 -72.82995,79.00846 -126.13554,90.33264 -16.0178,3.40282 -57.3658,5.0048 -70.3484,2.72559 z M 389.97586,630.21822 c 5.6414,-1.73973 8.32077,-27.14656 10.05557,-95.35043 l 0.95136,-37.40317 4.90533,8.57143 c 14.52358,25.37808 70.71634,118.42055 73.41367,121.55638 2.49743,2.90343 3.94851,3.46676 6.97401,2.70742 4.86017,-1.21983 5.07204,-3.12193 6.04446,-54.2638 1.01363,-53.30905 4.71823,-83.12511 12.13433,-97.66185 3.1376,-6.1502 3.02734,-6.41267 -3.33429,-7.93727 -5.39036,-1.29183 -11.48981,1.29914 -13.51333,5.74028 -2.5191,5.52882 -4.45681,26.58036 -4.46961,48.55839 -0.007,11.07047 -0.4334,31.7696 -0.94879,45.99806 l -0.93705,25.86993 -7.3483,-11.71234 c -10.20846,-16.27115 -33.66688,-56.01183 -48.65536,-82.42663 -17.65477,-31.11372 -17.91627,-31.42833 -26.12349,-31.42968 -3.69215,-6.1e-4 -12.04892,1.05807 -18.5706,2.35262 -10.63563,2.11118 -11.81337,2.66336 -11.42857,5.35826 0.3821,2.67594 1.4315,3.02292 9.59582,3.17282 12.16242,0.22331 12.97605,1.42921 12.97605,19.23197 0,40.85236 -5.49993,93.25242 -12.2228,116.45168 -2.79385,9.64097 -3.21062,12.72444 -1.8348,13.57474 1.60647,0.99284 7.49081,0.5355 12.33639,-0.95881 z"
       id="path1533"
       inkscape:connector-curvature="0"
       transform="scale(0.26458333)" />
    <path
       style="opacity:0;fill:#d4aa00;fill-opacity:1;stroke-width:0.71428573"
       d="m 423.64236,681.93794 c 35.80403,-11.2804 62.43227,-24.15363 79.70916,-38.53479 7.37455,-6.13852 10.8478,-10.55491 23.82357,-30.29274 21.35332,-32.48117 34.00813,-70.60707 33.95333,-102.29328 -0.0429,-24.80556 -7.50563,-48.02866 -21.97492,-68.38323 -7.23177,-10.17323 -19.24294,-21.99166 -25.86828,-25.45315 -5.09587,-2.66241 -5.67641,-2.79891 -11.90345,-2.79891 -6.21805,0 -6.70973,0.11509 -9.80539,2.2954 -3.24389,2.2847 -3.2733,2.29029 -6.31083,1.19854 -4.0588,-1.45881 -11.77842,-1.50616 -14.50374,-0.089 -2.25071,1.1704 -4.62742,3.52786 -5.92875,5.88073 -0.71376,1.29053 -0.79221,1.3038 -0.81183,0.13735 -0.0483,-2.86849 3.13289,-16.25217 5.31794,-22.37359 4.06964,-11.40108 9.50999,-17.75765 15.93576,-18.61952 10.99179,-1.47431 29.96381,12.09765 52.11916,37.28433 17.47243,19.86303 25.4277,32.33787 31.2482,49.00095 5.32566,15.24647 7.46755,28.24223 7.48699,45.42675 0.0304,26.87664 -6.41544,52.4494 -20.09264,79.71416 -26.07772,51.98451 -67.88477,83.18056 -119.89428,89.46403 -4.51785,0.54583 -10.94642,0.97418 -14.28571,0.9519 l -6.07143,-0.0405 z"
       id="path1557"
       inkscape:connector-curvature="0"
       transform="scale(0.26458333)" />
    <path
       style="opacity:0;fill:#d4aa00;fill-opacity:1;stroke-width:0.71428573"
       d="m 423.64236,681.93794 c 35.80403,-11.2804 62.43227,-24.15363 79.70916,-38.53479 7.37455,-6.13852 10.8478,-10.55491 23.82357,-30.29274 21.35332,-32.48117 34.00813,-70.60707 33.95333,-102.29328 -0.0429,-24.80556 -7.50563,-48.02866 -21.97492,-68.38323 -7.23177,-10.17323 -19.24294,-21.99166 -25.86828,-25.45315 -5.09587,-2.66241 -5.67641,-2.79891 -11.90345,-2.79891 -6.21805,0 -6.70973,0.11509 -9.80539,2.2954 -3.24389,2.2847 -3.2733,2.29029 -6.31083,1.19854 -4.0588,-1.45881 -11.77842,-1.50616 -14.50374,-0.089 -2.25071,1.1704 -4.62742,3.52786 -5.92875,5.88073 -0.71376,1.29053 -0.79221,1.3038 -0.81183,0.13735 -0.0483,-2.86849 3.13289,-16.25217 5.31794,-22.37359 4.06964,-11.40108 9.50999,-17.75765 15.93576,-18.61952 10.99179,-1.47431 29.96381,12.09765 52.11916,37.28433 17.47243,19.86303 25.4277,32.33787 31.2482,49.00095 5.32566,15.24647 7.46755,28.24223 7.48699,45.42675 0.0304,26.87664 -6.41544,52.4494 -20.09264,79.71416 -26.07772,51.98451 -67.88477,83.18056 -119.89428,89.46403 -4.51785,0.54583 -10.94642,0.97418 -14.28571,0.9519 l -6.07143,-0.0405 z"
       id="path1559"
       inkscape:connector-curvature="0"
       transform="scale(0.26458333)" />
    <path
       style="opacity:0;fill:#d4aa00;fill-opacity:1;stroke-width:0.71428573"
       d="m 423.64236,681.93794 c 35.80403,-11.2804 62.43227,-24.15363 79.70916,-38.53479 7.37455,-6.13852 10.8478,-10.55491 23.82357,-30.29274 21.35332,-32.48117 34.00813,-70.60707 33.95333,-102.29328 -0.0429,-24.80556 -7.50563,-48.02866 -21.97492,-68.38323 -7.23177,-10.17323 -19.24294,-21.99166 -25.86828,-25.45315 -5.09587,-2.66241 -5.67641,-2.79891 -11.90345,-2.79891 -6.21805,0 -6.70973,0.11509 -9.80539,2.2954 -3.24389,2.2847 -3.2733,2.29029 -6.31083,1.19854 -4.0588,-1.45881 -11.77842,-1.50616 -14.50374,-0.089 -2.25071,1.1704 -4.62742,3.52786 -5.92875,5.88073 -0.71376,1.29053 -0.79221,1.3038 -0.81183,0.13735 -0.0483,-2.86849 3.13289,-16.25217 5.31794,-22.37359 4.06964,-11.40108 9.50999,-17.75765 15.93576,-18.61952 10.99179,-1.47431 29.96381,12.09765 52.11916,37.28433 17.47243,19.86303 25.4277,32.33787 31.2482,49.00095 5.32566,15.24647 7.46755,28.24223 7.48699,45.42675 0.0304,26.87664 -6.41544,52.4494 -20.09264,79.71416 -26.07772,51.98451 -67.88477,83.18056 -119.89428,89.46403 -4.51785,0.54583 -10.94642,0.97418 -14.28571,0.9519 l -6.07143,-0.0405 z"
       id="path1561"
       inkscape:connector-curvature="0"
       transform="scale(0.26458333)" />
    <path
       style="opacity:0;fill:#d4aa00;fill-opacity:1;stroke-width:0.71428573"
       d="m 637.92808,720.62711 c 38.36226,-11.80528 68.3563,-26.97205 84.01914,-42.48507 3.3891,-3.35668 7.30245,-7.8981 8.69635,-10.09203 1.3939,-2.19394 4.36106,-6.53322 6.5937,-9.64286 19.52662,-27.19694 34.03127,-63.47642 37.51883,-93.84334 1.21306,-10.5623 0.49054,-29.76794 -1.46541,-38.9534 -4.37413,-20.54152 -13.76543,-38.92769 -28.27539,-55.35715 -9.39541,-10.63831 -17.61668,-16.30105 -25.91426,-17.84949 -11.25365,-2.10008 -19.93467,4.91772 -24.95124,20.17079 -1.19519,3.634 -2.57729,9.1787 -3.07133,12.32156 -0.49404,3.14286 -1.13597,5.99169 -1.4265,6.33075 -0.29053,0.33905 -3.49663,0.38152 -7.12467,0.0944 l -6.59644,-0.52209 0.46305,-9.02294 c 1.35433,-26.39068 7.63046,-48.89794 15.7125,-56.3477 5.95199,-5.48636 11.59198,-5.50194 21.83754,-0.0603 13.77887,7.31821 35.17795,28.32162 53.00401,52.02398 12.27606,16.3228 20.24715,37.7783 22.84863,61.50081 1.00368,9.15238 0.42343,29.23442 -1.10587,38.27319 -3.52445,20.8309 -11.70882,43.71173 -22.5709,63.1009 -8.88363,15.85754 -18.14942,28.23125 -29.94652,39.99111 -20.6269,20.56178 -45.46098,34.02684 -73.06241,39.61447 -8.92041,1.80584 -22.03411,3.24687 -29.11138,3.19895 l -3.92857,-0.0266 7.85714,-2.41789 z"
       id="path1563"
       inkscape:connector-curvature="0"
       transform="scale(0.26458333)" />
    <path
       style="opacity:0;fill:#000080;fill-opacity:1;stroke-width:1.42857146"
       d="m 653.83993,715.73652 c 22.64189,-7.96918 46.44113,-19.83929 59.28217,-29.5676 21.56162,-16.33498 47.92171,-61.3464 58.01015,-99.0558 4.66071,-17.42118 5.38976,-48.82545 1.51076,-65.07726 -5.19335,-21.75856 -13.62475,-37.06467 -29.97173,-54.40976 -10.41014,-11.04576 -18.33856,-15.45191 -27.8041,-15.45191 -11.64337,0 -19.75029,10.32354 -23.83904,30.35714 l -1.67649,8.21429 h -6.52374 -6.52375 l 0.99353,-12.5 c 2.02945,-25.53336 8.67728,-47.33434 16.25022,-53.29122 9.10741,-7.16389 21.9509,-0.97613 45.29734,21.82341 19.68917,19.22795 30.15816,32.72209 37.99008,48.96781 8.41159,17.4481 12.21754,33.89888 12.55921,54.28571 0.46596,27.80197 -4.75628,50.26251 -18.29936,78.70446 -24.17063,50.76094 -63.65604,82.73501 -112.79952,91.34158 -22.75896,3.9858 -24.17999,2.6014 -4.45573,-4.34085 z"
       id="path1141"
       inkscape:connector-curvature="0"
       transform="scale(0.26458333)" />
  </g>
  <g
     inkscape:groupmode="layer"
     id="layer2"
     inkscape:label="Blue Circle"
     transform="translate(-49.341413,-86.315285)">
    <path
       style="opacity:0;fill:#808000;fill-opacity:1;stroke-width:1.42857146"
       d="M 410.2685,735.23506 C 344.57493,723.70195 291.5949,684.92203 265.15535,629.01623 c -18.29916,-38.69311 -21.60349,-85.16638 -8.89649,-125.12304 9.28257,-29.18867 25.22722,-54.29607 48.66908,-76.63726 21.93285,-20.90302 46.05066,-35.1281 75.56106,-44.56713 19.6128,-6.27324 29.83022,-7.56491 59.7795,-7.55719 36.43489,0.009 58.60973,4.96176 87.60737,19.56559 47.63012,23.98753 84.22686,68.36832 96.74822,117.32633 10.92798,42.72803 4.06227,92.72877 -17.87165,130.1533 -27.11978,46.27286 -72.82995,79.00846 -126.13554,90.33264 -16.0178,3.40282 -57.3658,5.0048 -70.3484,2.72559 z M 389.97586,630.21822 c 5.6414,-1.73973 8.32077,-27.14656 10.05557,-95.35043 l 0.95136,-37.40317 4.90533,8.57143 c 14.52358,25.37808 70.71634,118.42055 73.41367,121.55638 2.49743,2.90343 3.94851,3.46676 6.97401,2.70742 4.86017,-1.21983 5.07204,-3.12193 6.04446,-54.2638 1.01363,-53.30905 4.71823,-83.12511 12.13433,-97.66185 3.1376,-6.1502 3.02734,-6.41267 -3.33429,-7.93727 -5.39036,-1.29183 -11.48981,1.29914 -13.51333,5.74028 -2.5191,5.52882 -4.45681,26.58036 -4.46961,48.55839 -0.007,11.07047 -0.4334,31.7696 -0.94879,45.99806 l -0.93705,25.86993 -7.3483,-11.71234 c -10.20846,-16.27115 -33.66688,-56.01183 -48.65536,-82.42663 -17.65477,-31.11372 -17.91627,-31.42833 -26.12349,-31.42968 -3.69215,-6.1e-4 -12.04892,1.05807 -18.5706,2.35262 -10.63563,2.11118 -11.81337,2.66336 -11.42857,5.35826 0.3821,2.67594 1.4315,3.02292 9.59582,3.17282 12.16242,0.22331 12.97605,1.42921 12.97605,19.23197 0,40.85236 -5.49993,93.25242 -12.2228,116.45168 -2.79385,9.64097 -3.21062,12.72444 -1.8348,13.57474 1.60647,0.99284 7.49081,0.5355 12.33639,-0.95881 z"
       id="path1523"
       inkscape:connector-curvature="0"
       transform="scale(0.26458333)" />
    <path
       style="opacity:0;fill:#000080;fill-opacity:1;stroke-width:1.42857146"
       d="m 653.83993,715.73652 c 22.64189,-7.96918 46.44113,-19.83929 59.28217,-29.5676 21.56162,-16.33498 47.92171,-61.3464 58.01015,-99.0558 4.66071,-17.42118 5.38976,-48.82545 1.51076,-65.07726 -5.19335,-21.75856 -13.62475,-37.06467 -29.97173,-54.40976 -10.41014,-11.04576 -18.33856,-15.45191 -27.8041,-15.45191 -11.64337,0 -19.75029,10.32354 -23.83904,30.35714 l -1.67649,8.21429 h -6.52374 -6.52375 l 0.99353,-12.5 c 2.02945,-25.53336 8.67728,-47.33434 16.25022,-53.29122 9.10741,-7.16389 21.9509,-0.97613 45.29734,21.82341 19.68917,19.22795 30.15816,32.72209 37.99008,48.96781 8.41159,17.4481 12.21754,33.89888 12.55921,54.28571 0.46596,27.80197 -4.75628,50.26251 -18.29936,78.70446 -24.17063,50.76094 -63.65604,82.73501 -112.79952,91.34158 -22.75896,3.9858 -24.17999,2.6014 -4.45573,-4.34085 z"
       id="path1143"
       inkscape:connector-curvature="0"
       transform="scale(0.26458333)" />
    <path
       style="opacity:0;fill:#000080;fill-opacity:1;stroke-width:1.42857146"
       d="m 653.83993,715.73652 c 22.64189,-7.96918 46.44113,-19.83929 59.28217,-29.5676 21.56162,-16.33498 47.92171,-61.3464 58.01015,-99.0558 4.66071,-17.42118 5.38976,-48.82545 1.51076,-65.07726 -5.19335,-21.75856 -13.62475,-37.06467 -29.97173,-54.40976 -10.41014,-11.04576 -18.33856,-15.45191 -27.8041,-15.45191 -11.64337,0 -19.75029,10.32354 -23.83904,30.35714 l -1.67649,8.21429 h -6.52374 -6.52375 l 0.99353,-12.5 c 2.02945,-25.53336 8.67728,-47.33434 16.25022,-53.29122 9.10741,-7.16389 21.9509,-0.97613 45.29734,21.82341 19.68917,19.22795 30.15816,32.72209 37.99008,48.96781 8.41159,17.4481 12.21754,33.89888 12.55921,54.28571 0.46596,27.80197 -4.75628,50.26251 -18.29936,78.70446 -24.17063,50.76094 -63.65604,82.73501 -112.79952,91.34158 -22.75896,3.9858 -24.17999,2.6014 -4.45573,-4.34085 z"
       id="path1145"
       inkscape:connector-curvature="0"
       transform="scale(0.26458333)" />
  </g>
  <g
     inkscape:groupmode="layer"
     id="layer3"
     inkscape:label="Text"
     style="display:inline"
     transform="translate(-49.341413,-86.315285)">
    <text
       xml:space="preserve"
       style="font-style:normal;font-weight:normal;font-size:15.29794407px;line-height:1.25;font-family:sans-serif;letter-spacing:0px;word-spacing:0px;fill:#000000;fill-opacity:1;stroke:none;stroke-width:2;stroke-miterlimit:4;stroke-dasharray:none"
       x="81.170677"
       y="155.80144"
       id="text18"
       transform="scale(0.98453522,1.0157077)"><tspan
         sodipodi:role="line"
         id="tspan16"
         x="81.170677"
         y="155.80144"
         style="font-style:normal;font-variant:normal;font-weight:normal;font-stretch:normal;font-size:88.24680328px;line-height:7.25;font-family:Gabriola;-inkscape-font-specification:Gabriola;fill:#d4aa00;stroke-width:2;stroke-miterlimit:4;stroke-dasharray:none">N</tspan></text>
    <path
       style="opacity:0;fill:#80ca00;fill-opacity:1;stroke-width:1.42857146"
       d="m 376.69707,629.57493 c 0,-0.72998 0.97801,-4.09921 2.17336,-7.48718 7.60734,-21.56151 13.51537,-73.75062 13.53429,-119.55642 0.006,-14.39443 -0.30443,-16.38249 -2.97446,-19.05252 -2.46539,-2.46539 -4.37675,-2.89787 -11.04897,-2.5 -6.54514,0.39029 -8.1525,0.0445 -8.51623,-1.832 -0.4962,-2.55993 4.80576,-4.27295 21.38055,-6.90791 14.31124,-2.27512 14.84052,-1.83711 29.99163,24.81991 14.12509,24.85181 55.39087,94.12975 58.69,98.53011 1.80088,2.402 2.12826,0.9021 2.96217,-13.57142 0.51564,-8.94954 0.95159,-29.77188 0.96878,-46.27188 0.035,-33.5651 1.835,-55.39796 4.96064,-60.16829 2.63454,-4.02081 6.77797,-5.3561 12.9988,-4.18906 l 4.87216,0.91402 -2.94251,5.76779 c -7.48829,14.67827 -10.92998,43.13681 -12.7628,105.53268 -0.72701,24.75 -1.34623,45.20145 -1.37605,45.44766 -0.0298,0.24621 -2.12983,0.24621 -4.66669,0 -4.20719,-0.40833 -5.54886,-1.95393 -15.26948,-17.59051 -5.86136,-9.42858 -23.0164,-38.03572 -38.12232,-63.57143 -15.10592,-25.53572 -28.37884,-47.67367 -29.49539,-49.19546 -1.77964,-2.42554 -2.14412,2.06849 -2.95443,36.42858 -1.28048,54.29729 -3.37229,83.65788 -6.40565,89.90973 -2.20515,4.54488 -3.04364,5.03963 -9.21168,5.43542 -3.73215,0.23948 -6.78572,-0.16184 -6.78572,-0.89182 z"
       id="path834"
       inkscape:connector-curvature="0"
       transform="scale(0.26458333)" />
    <path
       style="opacity:0;fill:#808000;fill-opacity:1;stroke-width:1.42857146"
       d="m 376.75363,628.53605 c 0.59208,-1.375 2.56248,-7.88025 4.37865,-14.4561 6.54508,-23.69796 10.56479,-63.21618 10.56479,-103.8636 0,-29.49546 -0.0806,-29.67319 -13.13015,-28.93906 -7.703,0.43335 -8.37397,0.23515 -7.99635,-2.36198 0.33617,-2.31198 2.52073,-3.27826 11.84079,-5.23743 15.19304,-3.19374 19.65362,-3.17307 23.82787,0.11039 1.92439,1.51373 8.86142,12.28159 15.41563,23.92858 11.90397,21.15364 53.02054,90.21516 58.53546,98.3192 l 2.9165,4.28571 0.0467,-37.14286 c 0.0525,-41.80028 1.89483,-77.68808 4.34664,-84.67301 1.85997,-5.29883 5.04839,-7.47973 10.88872,-7.44797 7.20274,0.0392 8.2189,1.72403 4.92902,8.17271 -7.30599,14.32093 -11.06913,47.14084 -12.53847,109.35334 l -0.96891,41.0235 h -4.47399 c -4.2263,0 -5.19393,-1.1715 -17.47784,-21.16022 -15.30652,-24.90722 -61.14847,-101.86067 -64.23477,-107.82892 -1.17564,-2.27343 -2.36228,-3.90875 -2.63699,-3.63404 -0.27471,0.27471 -1.20717,21.38802 -2.07213,46.91847 -2.29865,67.84783 -3.86466,82.46593 -9.2173,86.03999 -0.86452,0.57725 -4.37278,1.0594 -7.79613,1.07142 -5.38952,0.019 -6.07989,-0.3134 -5.14774,-2.47812 z"
       id="path1517"
       inkscape:connector-curvature="0"
       transform="scale(0.26458333)" />
    <path
       style="opacity:0;fill:#808000;fill-opacity:1;stroke-width:1.42857146"
       d="m 376.75363,628.53605 c 0.59208,-1.375 2.56248,-7.88025 4.37865,-14.4561 6.54508,-23.69796 10.56479,-63.21618 10.56479,-103.8636 0,-29.49546 -0.0806,-29.67319 -13.13015,-28.93906 -7.703,0.43335 -8.37397,0.23515 -7.99635,-2.36198 0.33617,-2.31198 2.52073,-3.27826 11.84079,-5.23743 15.19304,-3.19374 19.65362,-3.17307 23.82787,0.11039 1.92439,1.51373 8.86142,12.28159 15.41563,23.92858 11.90397,21.15364 53.02054,90.21516 58.53546,98.3192 l 2.9165,4.28571 0.0467,-37.14286 c 0.0525,-41.80028 1.89483,-77.68808 4.34664,-84.67301 1.85997,-5.29883 5.04839,-7.47973 10.88872,-7.44797 7.20274,0.0392 8.2189,1.72403 4.92902,8.17271 -7.30599,14.32093 -11.06913,47.14084 -12.53847,109.35334 l -0.96891,41.0235 h -4.47399 c -4.2263,0 -5.19393,-1.1715 -17.47784,-21.16022 -15.30652,-24.90722 -61.14847,-101.86067 -64.23477,-107.82892 -1.17564,-2.27343 -2.36228,-3.90875 -2.63699,-3.63404 -0.27471,0.27471 -1.20717,21.38802 -2.07213,46.91847 -2.29865,67.84783 -3.86466,82.46593 -9.2173,86.03999 -0.86452,0.57725 -4.37278,1.0594 -7.79613,1.07142 -5.38952,0.019 -6.07989,-0.3134 -5.14774,-2.47812 z"
       id="path1519"
       inkscape:connector-curvature="0"
       transform="scale(0.26458333)" />
    <path
       style="opacity:0;fill:#808000;fill-opacity:1;stroke-width:1.42857146"
       d="M 410.2685,735.23506 C 344.57493,723.70195 291.5949,684.92203 265.15535,629.01623 c -18.29916,-38.69311 -21.60349,-85.16638 -8.89649,-125.12304 9.28257,-29.18867 25.22722,-54.29607 48.66908,-76.63726 21.93285,-20.90302 46.05066,-35.1281 75.56106,-44.56713 19.6128,-6.27324 29.83022,-7.56491 59.7795,-7.55719 36.43489,0.009 58.60973,4.96176 87.60737,19.56559 47.63012,23.98753 84.22686,68.36832 96.74822,117.32633 10.92798,42.72803 4.06227,92.72877 -17.87165,130.1533 -27.11978,46.27286 -72.82995,79.00846 -126.13554,90.33264 -16.0178,3.40282 -57.3658,5.0048 -70.3484,2.72559 z M 389.97586,630.21822 c 5.6414,-1.73973 8.32077,-27.14656 10.05557,-95.35043 l 0.95136,-37.40317 4.90533,8.57143 c 14.52358,25.37808 70.71634,118.42055 73.41367,121.55638 2.49743,2.90343 3.94851,3.46676 6.97401,2.70742 4.86017,-1.21983 5.07204,-3.12193 6.04446,-54.2638 1.01363,-53.30905 4.71823,-83.12511 12.13433,-97.66185 3.1376,-6.1502 3.02734,-6.41267 -3.33429,-7.93727 -5.39036,-1.29183 -11.48981,1.29914 -13.51333,5.74028 -2.5191,5.52882 -4.45681,26.58036 -4.46961,48.55839 -0.007,11.07047 -0.4334,31.7696 -0.94879,45.99806 l -0.93705,25.86993 -7.3483,-11.71234 c -10.20846,-16.27115 -33.66688,-56.01183 -48.65536,-82.42663 -17.65477,-31.11372 -17.91627,-31.42833 -26.12349,-31.42968 -3.69215,-6.1e-4 -12.04892,1.05807 -18.5706,2.35262 -10.63563,2.11118 -11.81337,2.66336 -11.42857,5.35826 0.3821,2.67594 1.4315,3.02292 9.59582,3.17282 12.16242,0.22331 12.97605,1.42921 12.97605,19.23197 0,40.85236 -5.49993,93.25242 -12.2228,116.45168 -2.79385,9.64097 -3.21062,12.72444 -1.8348,13.57474 1.60647,0.99284 7.49081,0.5355 12.33639,-0.95881 z"
       id="path1521"
       inkscape:connector-curvature="0"
       transform="scale(0.26458333)" />
    <path
       style="opacity:0;fill:#808000;fill-opacity:1;stroke-width:1.42857146"
       d="m 136.84833,277.82176 c 7.12067,-19.94699 11.24081,-49.43722 13.48941,-96.55146 2.2114,-46.33505 1.91344,-47.37711 -13.54675,-47.37711 -5.949,0 -7.95106,-0.51533 -7.95106,-2.04659 0,-1.12563 1.125,-2.35521 2.5,-2.73241 16.34665,-4.48433 30.09769,-5.53669 33.66904,-2.57668 1.28076,1.06152 8.19009,12.31152 15.35407,25 14.98579,26.54209 54.49799,92.86869 58.30178,97.86748 2.4862,3.26726 2.59318,1.84421 3.54416,-47.14285 0.53932,-27.7815 1.606,-55.28855 2.3704,-61.12679 1.93293,-14.76313 6.3464,-19.13592 16.54949,-16.39695 l 3.00322,0.8062 -3.25422,8.10287 c -7.12107,17.7312 -10.46488,48.27227 -11.83574,108.10286 l -0.91649,40 h -4.28111 c -3.95482,0 -5.21201,-1.49488 -16.49513,-19.61393 -6.71771,-10.78766 -24.71978,-40.75737 -40.0046,-66.59935 l -27.79058,-46.98542 -0.96554,5.88506 c -0.53105,3.23679 -1.01319,15.6534 -1.07143,27.59248 -0.12984,26.61901 -2.64028,76.66592 -4.4289,88.29259 -1.56418,10.16776 -4.80316,13.57143 -12.91474,13.57143 h -5.49265 z"
       id="path1535"
       inkscape:connector-curvature="0"
       transform="scale(0.26458333)" />
    <path
       style="opacity:0;fill:#808000;fill-opacity:1;stroke-width:1.42857146"
       d="m 136.84833,277.82176 c 7.12067,-19.94699 11.24081,-49.43722 13.48941,-96.55146 2.2114,-46.33505 1.91344,-47.37711 -13.54675,-47.37711 -5.949,0 -7.95106,-0.51533 -7.95106,-2.04659 0,-1.12563 1.125,-2.35521 2.5,-2.73241 16.34665,-4.48433 30.09769,-5.53669 33.66904,-2.57668 1.28076,1.06152 8.19009,12.31152 15.35407,25 14.98579,26.54209 54.49799,92.86869 58.30178,97.86748 2.4862,3.26726 2.59318,1.84421 3.54416,-47.14285 0.53932,-27.7815 1.606,-55.28855 2.3704,-61.12679 1.93293,-14.76313 6.3464,-19.13592 16.54949,-16.39695 l 3.00322,0.8062 -3.25422,8.10287 c -7.12107,17.7312 -10.46488,48.27227 -11.83574,108.10286 l -0.91649,40 h -4.28111 c -3.95482,0 -5.21201,-1.49488 -16.49513,-19.61393 -6.71771,-10.78766 -24.71978,-40.75737 -40.0046,-66.59935 l -27.79058,-46.98542 -0.96554,5.88506 c -0.53105,3.23679 -1.01319,15.6534 -1.07143,27.59248 -0.12984,26.61901 -2.64028,76.66592 -4.4289,88.29259 -1.56418,10.16776 -4.80316,13.57143 -12.91474,13.57143 h -5.49265 z"
       id="path1537"
       inkscape:connector-curvature="0"
       transform="scale(0.26458333)" />
    <path
       style="opacity:0;fill:#808000;fill-opacity:1;stroke-width:1.42857146"
       d="m 136.84833,277.82176 c 7.12067,-19.94699 11.24081,-49.43722 13.48941,-96.55146 2.2114,-46.33505 1.91344,-47.37711 -13.54675,-47.37711 -5.949,0 -7.95106,-0.51533 -7.95106,-2.04659 0,-1.12563 1.125,-2.35521 2.5,-2.73241 16.34665,-4.48433 30.09769,-5.53669 33.66904,-2.57668 1.28076,1.06152 8.19009,12.31152 15.35407,25 14.98579,26.54209 54.49799,92.86869 58.30178,97.86748 2.4862,3.26726 2.59318,1.84421 3.54416,-47.14285 0.53932,-27.7815 1.606,-55.28855 2.3704,-61.12679 1.93293,-14.76313 6.3464,-19.13592 16.54949,-16.39695 l 3.00322,0.8062 -3.25422,8.10287 c -7.12107,17.7312 -10.46488,48.27227 -11.83574,108.10286 l -0.91649,40 h -4.28111 c -3.95482,0 -5.21201,-1.49488 -16.49513,-19.61393 -6.71771,-10.78766 -24.71978,-40.75737 -40.0046,-66.59935 l -27.79058,-46.98542 -0.96554,5.88506 c -0.53105,3.23679 -1.01319,15.6534 -1.07143,27.59248 -0.12984,26.61901 -2.64028,76.66592 -4.4289,88.29259 -1.56418,10.16776 -4.80316,13.57143 -12.91474,13.57143 h -5.49265 z"
       id="path1539"
       inkscape:connector-curvature="0"
       transform="scale(0.26458333)" />
    <path
       style="opacity:0;fill:#ff6600;fill-opacity:1;stroke-width:1.42857146"
       d="m 220.21049,307.63323 c 3.72672,-10.83191 6.8549,-26.05595 9.28106,-45.16861 2.55539,-20.13071 5.51225,-82.57932 4.23292,-89.39878 -1.16092,-6.18819 -3.98905,-7.74408 -14.07634,-7.74408 -6.02203,0 -7.95106,-0.50653 -7.95106,-2.08779 0,-2.37955 5.87882,-4.20089 21.1384,-6.54901 8.87625,-1.36585 10.92558,-1.27547 13.8012,0.60871 1.8574,1.21702 8.36696,11.07478 14.4657,21.90614 12.84402,22.811 57.87204,98.33062 61.14498,102.55052 2.02245,2.60759 2.22407,0.11204 2.30839,-28.57143 0.11251,-38.27538 2.23248,-82.38105 4.30794,-89.62605 1.64305,-5.73553 4.82038,-8.23109 10.47978,-8.23109 7.54196,0 7.94872,0.89748 4.4054,9.72002 -7.13165,17.7571 -10.39042,47.48262 -11.81295,107.75408 l -0.95312,40.38304 -3.90117,0.44939 c -3.48631,0.4016 -4.71462,-0.81373 -11.55067,-11.42857 -6.22422,-9.66481 -55.95078,-92.65576 -69.84797,-116.5725 l -3.55792,-6.12311 -0.92828,10.98151 c -0.51055,6.03983 -0.92828,18.88499 -0.92828,28.5448 0,23.16977 -2.61608,73.52103 -4.33495,83.4342 -1.63068,9.40454 -5.0919,12.85714 -12.88922,12.85714 h -5.47908 z"
       id="path1541"
       inkscape:connector-curvature="0"
       transform="scale(0.26458333)" />
    <path
       style="opacity:0;fill:#ff6600;fill-opacity:1;stroke-width:1.42857146"
       d="m 220.21049,307.63323 c 3.72672,-10.83191 6.8549,-26.05595 9.28106,-45.16861 2.55539,-20.13071 5.51225,-82.57932 4.23292,-89.39878 -1.16092,-6.18819 -3.98905,-7.74408 -14.07634,-7.74408 -6.02203,0 -7.95106,-0.50653 -7.95106,-2.08779 0,-2.37955 5.87882,-4.20089 21.1384,-6.54901 8.87625,-1.36585 10.92558,-1.27547 13.8012,0.60871 1.8574,1.21702 8.36696,11.07478 14.4657,21.90614 12.84402,22.811 57.87204,98.33062 61.14498,102.55052 2.02245,2.60759 2.22407,0.11204 2.30839,-28.57143 0.11251,-38.27538 2.23248,-82.38105 4.30794,-89.62605 1.64305,-5.73553 4.82038,-8.23109 10.47978,-8.23109 7.54196,0 7.94872,0.89748 4.4054,9.72002 -7.13165,17.7571 -10.39042,47.48262 -11.81295,107.75408 l -0.95312,40.38304 -3.90117,0.44939 c -3.48631,0.4016 -4.71462,-0.81373 -11.55067,-11.42857 -6.22422,-9.66481 -55.95078,-92.65576 -69.84797,-116.5725 l -3.55792,-6.12311 -0.92828,10.98151 c -0.51055,6.03983 -0.92828,18.88499 -0.92828,28.5448 0,23.16977 -2.61608,73.52103 -4.33495,83.4342 -1.63068,9.40454 -5.0919,12.85714 -12.88922,12.85714 h -5.47908 z"
       id="path1543"
       inkscape:connector-curvature="0"
       transform="scale(0.26458333)" />
    <path
       style="opacity:0;fill:#ff6600;fill-opacity:1;stroke-width:1.42857146"
       d="m 58.83993,431.75033 c 0,-16.94512 2.381372,-20.51005 3.101423,-4.64286 0.58453,12.88083 -0.02251,19.64286 -1.763364,19.64286 -0.746742,0 -1.338059,-6.62882 -1.338059,-15 z"
       id="path1549"
       inkscape:connector-curvature="0"
       transform="scale(0.26458333)" />
    <path
       style="opacity:1;fill:#d4aa00;fill-opacity:1;stroke-width:2;stroke-miterlimit:4;stroke-dasharray:none"
       d="m 107.86654,181.08437 c 13.28246,-4.09022 22.24626,-8.75342 26.57351,-13.8242 1.27009,-1.48831 4.13141,-4.75376 7.15851,-9.33201 4.4638,-7.1311 7.29657,-16.24254 7.85172,-23.20217 0.22212,-2.78469 0.086,-7.60657 -0.26601,-9.43139 -1.48742,-7.70812 -5.23141,-14.08598 -11.63064,-19.8127 -1.30622,-1.16895 -1.89613,-1.5758 -3.09243,-2.13278 -2.7255,-0.89561 -3.03227,-0.58867 -4.39118,-0.47103 -3.93286,1.59036 -4.95046,3.91715 -7.89563,9.33217 l -0.34896,1.75469 H 120.107 c -0.94514,0 -1.47616,-0.13719 -1.75749,-0.18939 l -0.51154,-0.0949 -0.23346,-1.43584 c 0.71253,-7.32382 2.27869,-12.861768 4.7133,-15.954293 1.32534,-1.85019 2.10679,-3.103212 4.10588,-2.995932 1.80142,-0.184814 2.17483,-0.181236 3.64858,0.56128 3.39472,1.281227 6.45087,3.640338 10.4211,7.428835 2.46792,2.35497 6.48344,6.31491 8.07307,9.09438 2.77397,4.85029 4.56919,10.2824 5.44682,16.52838 0.2888,2.05555 0.33425,7.47497 0.0824,9.83264 -1.05621,9.88857 -6.01011,20.70579 -13.42885,29.32282 -1.57145,1.82527 -5.48984,5.47942 -7.34787,6.85236 -7.94969,5.8742 -18.37623,9.38982 -27.70774,9.34247 l -1.53036,-0.008 z"
       id="path1151"
       inkscape:connector-curvature="0"
       sodipodi:nodetypes="ccccccccccscccccccscccsccc" />
    <path
       style="display:inline;opacity:1;fill:#d4aa00;fill-opacity:1;stroke-width:0.16246235"
       d="M 99.194437,87.513824 C 84.92153,91.690052 76.045272,96.640282 71.395339,101.8177 c -5.144556,4.35443 -9.007789,10.09519 -9.007789,10.09519 -5.561905,8.14603 -7.281135,15.82812 -7.877681,22.9341 -0.238681,2.84323 -0.09249,7.7665 0.285845,9.62971 1.598332,7.87019 5.621509,14.38216 12.497914,20.22929 1.403616,1.19353 2.070929,1.74256 3.222814,2.41149 1.606181,1.03504 2.419876,1.18144 4.206487,0.95556 2.545344,-1.45862 3.974433,-2.40323 6.948259,-7.43923 l 2.082588,-4.82685 1.779756,0.33408 c 0.998186,0.18737 2.093934,0.0436 2.396254,0.0969 l 0.549669,0.0969 -0.108163,1.46604 c -0.622051,8.43292 -2.017806,13.88265 -4.346768,16.97197 -1.424158,1.88912 -2.622877,2.48626 -4.771032,2.37673 -1.210428,-0.0618 -1.55942,-0.15603 -3.130874,-0.84598 -3.089373,-1.35643 -6.489118,-2.31404 -10.755394,-6.1822 -3.691378,-2.4045 -6.966703,-6.63221 -9.126401,-9.17721 -3.793134,-4.46988 -5.691152,-11.73696 -6.634219,-18.11427 -0.310352,-2.09878 -0.359188,-7.63216 -0.08861,-10.03939 1.13496,-10.0965 6.458278,-21.14117 14.430213,-29.93938 1.688632,-1.86365 5.899205,-5.594654 7.895782,-6.996463 8.542485,-5.997718 19.746525,-9.587264 29.773861,-9.53892 l 1.91175,0.409004 z"
       id="path1151-0"
       inkscape:connector-curvature="0"
       sodipodi:nodetypes="ccscccccccscccsccccccccccc" />
  </g>
  <g
     inkscape:groupmode="layer"
     id="layer4"
     inkscape:label="Text Color"
     style="display:inline"
     transform="translate(-49.341413,-86.315285)">
    <path
       style="opacity:0;fill:#80ca00;fill-opacity:1;stroke-width:1.42857146"
       d="m 376.78658,628.24562 c 3.18976,-7.18753 9.32648,-35.28183 11.36364,-52.02344 1.27478,-10.4764 2.68467,-35.20612 3.13309,-54.95494 l 0.81529,-35.90695 -3.81703,-2.50101 c -2.90842,-1.90567 -5.50664,-2.30091 -10.91505,-1.66036 -6.29919,0.74605 -7.09802,0.53752 -7.09802,-1.85291 0,-2.82616 0.4622,-3.03923 12.49439,-5.75965 12.48996,-2.82393 21.28573,-2.56125 24.46739,0.73069 1.51879,1.57143 11.4041,17.96428 21.96735,36.42857 10.56326,18.46429 25.50295,43.85714 33.19932,56.42857 7.69637,12.57143 15.34812,25.10714 17.0039,27.85714 l 3.01051,5 0.87577,-49.28571 c 1.36779,-76.97422 2.5541,-82.22054 17.93926,-79.33427 3.97939,0.74654 4.78851,1.42779 3.97882,3.34997 -10.04166,23.83857 -12.84622,45.89267 -14.43144,113.4843 l -0.96325,41.07143 -4.41387,-0.0257 c -3.73376,-0.0217 -5.16978,-1.17732 -9.31976,-7.5 -4.77828,-7.27991 -58.27286,-96.45936 -69.37395,-115.65156 -3.05589,-5.28319 -5.6957,-9.46176 -5.86623,-9.28571 -0.17054,0.17609 -1.02814,21.53442 -1.90578,47.46299 -2.2665,66.96065 -3.86695,81.75197 -9.23344,85.33527 -0.86451,0.57726 -4.37277,1.0594 -7.79612,1.07143 -5.40196,0.019 -6.07769,-0.30842 -5.11479,-2.47813 z"
       id="path23"
       inkscape:connector-curvature="0"
       transform="scale(0.26458333)" />
    <path
       style="opacity:0;fill:#80ca00;fill-opacity:1;stroke-width:1.42857146"
       d="m 376.69707,629.57493 c 0,-0.72998 0.97801,-4.09921 2.17336,-7.48718 7.60734,-21.56151 13.51537,-73.75062 13.53429,-119.55642 0.006,-14.39443 -0.30443,-16.38249 -2.97446,-19.05252 -2.46539,-2.46539 -4.37675,-2.89787 -11.04897,-2.5 -6.54514,0.39029 -8.1525,0.0445 -8.51623,-1.832 -0.4962,-2.55993 4.80576,-4.27295 21.38055,-6.90791 14.31124,-2.27512 14.84052,-1.83711 29.99163,24.81991 14.12509,24.85181 55.39087,94.12975 58.69,98.53011 1.80088,2.402 2.12826,0.9021 2.96217,-13.57142 0.51564,-8.94954 0.95159,-29.77188 0.96878,-46.27188 0.035,-33.5651 1.835,-55.39796 4.96064,-60.16829 2.63454,-4.02081 6.77797,-5.3561 12.9988,-4.18906 l 4.87216,0.91402 -2.94251,5.76779 c -7.48829,14.67827 -10.92998,43.13681 -12.7628,105.53268 -0.72701,24.75 -1.34623,45.20145 -1.37605,45.44766 -0.0298,0.24621 -2.12983,0.24621 -4.66669,0 -4.20719,-0.40833 -5.54886,-1.95393 -15.26948,-17.59051 -5.86136,-9.42858 -23.0164,-38.03572 -38.12232,-63.57143 -15.10592,-25.53572 -28.37884,-47.67367 -29.49539,-49.19546 -1.77964,-2.42554 -2.14412,2.06849 -2.95443,36.42858 -1.28048,54.29729 -3.37229,83.65788 -6.40565,89.90973 -2.20515,4.54488 -3.04364,5.03963 -9.21168,5.43542 -3.73215,0.23948 -6.78572,-0.16184 -6.78572,-0.89182 z"
       id="path830"
       inkscape:connector-curvature="0"
       transform="scale(0.26458333)" />
    <path
       style="opacity:0;fill:#80ca00;fill-opacity:1;stroke-width:1.42857146"
       d="m 377.078,628.33162 c 4.96134,-16.90064 8.45386,-32.6138 10.25929,-46.15743 2.56776,-19.26226 5.04061,-58.53131 5.06025,-80.35714 0.0123,-13.67576 -0.31257,-15.68353 -2.96728,-18.33824 -2.46539,-2.46539 -4.37675,-2.89787 -11.04897,-2.5 -6.54514,0.39029 -8.1525,0.0445 -8.51623,-1.832 -0.32418,-1.67245 1.25226,-2.73918 5.69183,-3.85152 12.66146,-3.17233 25.16472,-4.57825 28.71419,-3.22875 2.53566,0.96406 7.22856,7.86177 16.77196,24.6517 14.27785,25.11939 55.56462,94.44308 58.8827,98.86863 1.78832,2.3852 2.13227,0.31264 2.96343,-17.85715 0.51717,-11.30554 0.9538,-32.12696 0.97029,-46.26981 0.0345,-29.62987 1.95784,-51.30166 4.95937,-55.88258 2.63454,-4.02081 6.77797,-5.3561 12.9988,-4.18906 l 4.87216,0.91402 -2.94251,5.76779 c -7.49979,14.7008 -10.95407,43.28905 -12.75139,105.53268 -0.71467,24.75 -1.33141,45.20145 -1.37054,45.44766 -0.0391,0.24621 -2.14675,0.24621 -4.68361,0 -4.20719,-0.40833 -5.54886,-1.95393 -15.26948,-17.59051 -5.86136,-9.42858 -23.0164,-38.03572 -38.12232,-63.57143 -15.10592,-25.53572 -28.37907,-47.67397 -29.4959,-49.19611 -1.77979,-2.42572 -2.14325,2.16184 -2.94272,37.14286 -1.22077,53.41473 -3.33838,82.80348 -6.42703,89.1961 -2.21143,4.57705 -3.00581,5.03749 -9.39061,5.44315 -6.16294,0.39155 -6.88645,0.14214 -6.21568,-2.14286 z"
       id="path836"
       inkscape:connector-curvature="0"
       transform="scale(0.26458333)" />
    <path
       style="opacity:0;fill:#80ca00;fill-opacity:1;stroke-width:1.42857146"
       d="m 376.69707,629.57493 c 0,-0.72998 0.97801,-4.09921 2.17336,-7.48718 7.60734,-21.56151 13.51537,-73.75062 13.53429,-119.55642 0.006,-14.39443 -0.30443,-16.38249 -2.97446,-19.05252 -2.46539,-2.46539 -4.37675,-2.89787 -11.04897,-2.5 -6.54514,0.39029 -8.1525,0.0445 -8.51623,-1.832 -0.4962,-2.55993 4.80576,-4.27295 21.38055,-6.90791 14.31124,-2.27512 14.84052,-1.83711 29.99163,24.81991 14.12509,24.85181 55.39087,94.12975 58.69,98.53011 1.80088,2.402 2.12826,0.9021 2.96217,-13.57142 0.51564,-8.94954 0.95159,-29.77188 0.96878,-46.27188 0.035,-33.5651 1.835,-55.39796 4.96064,-60.16829 2.63454,-4.02081 6.77797,-5.3561 12.9988,-4.18906 l 4.87216,0.91402 -2.94251,5.76779 c -7.48829,14.67827 -10.92998,43.13681 -12.7628,105.53268 -0.72701,24.75 -1.34623,45.20145 -1.37605,45.44766 -0.0298,0.24621 -2.12983,0.24621 -4.66669,0 -4.20719,-0.40833 -5.54886,-1.95393 -15.26948,-17.59051 -5.86136,-9.42858 -23.0164,-38.03572 -38.12232,-63.57143 -15.10592,-25.53572 -28.37884,-47.67367 -29.49539,-49.19546 -1.77964,-2.42554 -2.14412,2.06849 -2.95443,36.42858 -1.28048,54.29729 -3.37229,83.65788 -6.40565,89.90973 -2.20515,4.54488 -3.04364,5.03963 -9.21168,5.43542 -3.73215,0.23948 -6.78572,-0.16184 -6.78572,-0.89182 z"
       id="path838"
       inkscape:connector-curvature="0"
       transform="scale(0.26458333)" />
    <path
       style="opacity:0;fill:#80ca00;fill-opacity:1;stroke-width:1.42857146"
       d="m 376.69707,629.57493 c 0,-0.72998 0.97801,-4.09921 2.17336,-7.48718 7.60734,-21.56151 13.51537,-73.75062 13.53429,-119.55642 0.006,-14.39443 -0.30443,-16.38249 -2.97446,-19.05252 -2.46539,-2.46539 -4.37675,-2.89787 -11.04897,-2.5 -6.54514,0.39029 -8.1525,0.0445 -8.51623,-1.832 -0.4962,-2.55993 4.80576,-4.27295 21.38055,-6.90791 14.31124,-2.27512 14.84052,-1.83711 29.99163,24.81991 14.12509,24.85181 55.39087,94.12975 58.69,98.53011 1.80088,2.402 2.12826,0.9021 2.96217,-13.57142 0.51564,-8.94954 0.95159,-29.77188 0.96878,-46.27188 0.035,-33.5651 1.835,-55.39796 4.96064,-60.16829 2.63454,-4.02081 6.77797,-5.3561 12.9988,-4.18906 l 4.87216,0.91402 -2.94251,5.76779 c -7.48829,14.67827 -10.92998,43.13681 -12.7628,105.53268 -0.72701,24.75 -1.34623,45.20145 -1.37605,45.44766 -0.0298,0.24621 -2.12983,0.24621 -4.66669,0 -4.20719,-0.40833 -5.54886,-1.95393 -15.26948,-17.59051 -5.86136,-9.42858 -23.0164,-38.03572 -38.12232,-63.57143 -15.10592,-25.53572 -28.37884,-47.67367 -29.49539,-49.19546 -1.77964,-2.42554 -2.14412,2.06849 -2.95443,36.42858 -1.28048,54.29729 -3.37229,83.65788 -6.40565,89.90973 -2.20515,4.54488 -3.04364,5.03963 -9.21168,5.43542 -3.73215,0.23948 -6.78572,-0.16184 -6.78572,-0.89182 z"
       id="path840"
       inkscape:connector-curvature="0"
       transform="scale(0.26458333)" />
    <path
       style="opacity:0;fill:#80ca00;fill-opacity:1;stroke-width:1.42857146"
       d="m 411.69707,735.56436 c -11.32051,-1.70874 -35.23047,-8.45274 -46.97467,-13.24961 -43.94739,-17.95013 -78.43934,-50.14586 -98.86515,-92.28342 -9.31451,-19.21544 -14.4378,-37.71714 -16.31861,-58.93124 -4.77459,-53.85386 13.83986,-103.62008 53.17987,-142.17776 24.04301,-23.5649 51.99649,-39.24568 87.80415,-49.25462 13.56075,-3.79049 15.20591,-3.92171 49.03155,-3.91089 33.69583,0.0108 35.5189,0.15589 48.92578,3.89394 37.0816,10.33896 67.29472,28.19125 91.80455,54.24535 33.22557,35.31898 49.26967,74.76529 49.26967,121.13522 0,36.21485 -9.2911,67.21373 -29.03434,96.87039 -26.65754,40.04276 -67.96961,68.36454 -116.3388,79.7569 -12.86684,3.03051 -19.60368,3.68903 -41.76971,4.08296 -14.53572,0.25831 -28.35715,0.17857 -30.71429,-0.17722 z M 391.82704,629.08503 c 4.0731,-4.0731 4.6963,-11.62688 8.87605,-107.58855 l 0.99398,-22.82057 16.71609,28.53485 c 29.85085,50.95629 60.62203,101.20379 62.82888,102.59583 1.18562,0.74787 3.86232,0.93142 5.9482,0.40789 l 3.79255,-0.95186 0.0314,-20.32993 c 0.0476,-30.79028 2.52862,-78.3403 5.0486,-96.7585 1.23628,-9.03571 3.83582,-20.92857 5.77676,-26.42857 4.94636,-14.01632 4.9372,-14.20987 -0.6973,-14.74811 -8.03888,-0.76793 -11.59298,0.8396 -13.86184,6.26972 -2.90434,6.95109 -4.8046,39.97906 -4.83963,84.11699 l -0.0294,37.06717 -8.04082,-12.78146 c -9.63421,-15.31428 -47.52084,-79.68297 -56.09743,-95.30853 -3.35048,-6.10418 -7.70431,-13.01489 -9.67518,-15.35714 -4.30336,-5.11426 -8.22583,-5.39242 -26.54372,-1.88237 -11.45237,2.19448 -12.5,2.67419 -12.5,5.72376 0,3.13345 0.52752,3.32854 9,3.32854 5.09524,0 9.74376,0.74377 10.71429,1.71429 3.67789,3.67789 1.47631,70.43898 -3.40426,103.23133 -2.24036,15.0529 -7.00937,35.30822 -9.33725,39.6579 -0.76484,1.42911 -0.95568,3.30212 -0.4241,4.16224 1.29617,2.09726 13.17305,0.69618 15.72415,-1.85492 z"
       id="path842"
       inkscape:connector-curvature="0"
       transform="scale(0.26458333)" />
    <path
       style="opacity:0;fill:#80ca00;fill-opacity:1;stroke-width:1.42857146"
       d="m 411.69707,735.56436 c -11.32051,-1.70874 -35.23047,-8.45274 -46.97467,-13.24961 -43.94739,-17.95013 -78.43934,-50.14586 -98.86515,-92.28342 -9.31451,-19.21544 -14.4378,-37.71714 -16.31861,-58.93124 -4.77459,-53.85386 13.83986,-103.62008 53.17987,-142.17776 24.04301,-23.5649 51.99649,-39.24568 87.80415,-49.25462 13.56075,-3.79049 15.20591,-3.92171 49.03155,-3.91089 33.69583,0.0108 35.5189,0.15589 48.92578,3.89394 37.0816,10.33896 67.29472,28.19125 91.80455,54.24535 33.22557,35.31898 49.26967,74.76529 49.26967,121.13522 0,36.21485 -9.2911,67.21373 -29.03434,96.87039 -26.65754,40.04276 -67.96961,68.36454 -116.3388,79.7569 -12.86684,3.03051 -19.60368,3.68903 -41.76971,4.08296 -14.53572,0.25831 -28.35715,0.17857 -30.71429,-0.17722 z M 391.82704,629.08503 c 4.0731,-4.0731 4.6963,-11.62688 8.87605,-107.58855 l 0.99398,-22.82057 16.71609,28.53485 c 29.85085,50.95629 60.62203,101.20379 62.82888,102.59583 1.18562,0.74787 3.86232,0.93142 5.9482,0.40789 l 3.79255,-0.95186 0.0314,-20.32993 c 0.0476,-30.79028 2.52862,-78.3403 5.0486,-96.7585 1.23628,-9.03571 3.83582,-20.92857 5.77676,-26.42857 4.94636,-14.01632 4.9372,-14.20987 -0.6973,-14.74811 -8.03888,-0.76793 -11.59298,0.8396 -13.86184,6.26972 -2.90434,6.95109 -4.8046,39.97906 -4.83963,84.11699 l -0.0294,37.06717 -8.04082,-12.78146 c -9.63421,-15.31428 -47.52084,-79.68297 -56.09743,-95.30853 -3.35048,-6.10418 -7.70431,-13.01489 -9.67518,-15.35714 -4.30336,-5.11426 -8.22583,-5.39242 -26.54372,-1.88237 -11.45237,2.19448 -12.5,2.67419 -12.5,5.72376 0,3.13345 0.52752,3.32854 9,3.32854 5.09524,0 9.74376,0.74377 10.71429,1.71429 3.67789,3.67789 1.47631,70.43898 -3.40426,103.23133 -2.24036,15.0529 -7.00937,35.30822 -9.33725,39.6579 -0.76484,1.42911 -0.95568,3.30212 -0.4241,4.16224 1.29617,2.09726 13.17305,0.69618 15.72415,-1.85492 z"
       id="path844"
       inkscape:connector-curvature="0"
       transform="scale(0.26458333)" />
    <path
       style="opacity:0;fill:#80ca00;fill-opacity:1;stroke-width:1.42857146"
       d="m 376.69707,629.57493 c 0,-0.72998 0.97801,-4.09921 2.17336,-7.48718 7.60734,-21.56151 13.51537,-73.75062 13.53429,-119.55642 0.006,-14.39443 -0.30443,-16.38249 -2.97446,-19.05252 -2.46539,-2.46539 -4.37675,-2.89787 -11.04897,-2.5 -6.54514,0.39029 -8.1525,0.0445 -8.51623,-1.832 -0.4962,-2.55993 4.80576,-4.27295 21.38055,-6.90791 14.31124,-2.27512 14.84052,-1.83711 29.99163,24.81991 14.12509,24.85181 55.39087,94.12975 58.69,98.53011 1.80088,2.402 2.12826,0.9021 2.96217,-13.57142 0.51564,-8.94954 0.95159,-29.77188 0.96878,-46.27188 0.035,-33.5651 1.835,-55.39796 4.96064,-60.16829 2.63454,-4.02081 6.77797,-5.3561 12.9988,-4.18906 l 4.87216,0.91402 -2.94251,5.76779 c -7.48829,14.67827 -10.92998,43.13681 -12.7628,105.53268 -0.72701,24.75 -1.34623,45.20145 -1.37605,45.44766 -0.0298,0.24621 -2.12983,0.24621 -4.66669,0 -4.20719,-0.40833 -5.54886,-1.95393 -15.26948,-17.59051 -5.86136,-9.42858 -23.0164,-38.03572 -38.12232,-63.57143 -15.10592,-25.53572 -28.37884,-47.67367 -29.49539,-49.19546 -1.77964,-2.42554 -2.14412,2.06849 -2.95443,36.42858 -1.28048,54.29729 -3.37229,83.65788 -6.40565,89.90973 -2.20515,4.54488 -3.04364,5.03963 -9.21168,5.43542 -3.73215,0.23948 -6.78572,-0.16184 -6.78572,-0.89182 z"
       id="path846"
       inkscape:connector-curvature="0"
       transform="scale(0.26458333)" />
    <path
       style="opacity:0;fill:#000080;fill-opacity:1;stroke-width:1.42857146"
       d="m 376.75363,628.53605 c 0.59208,-1.375 2.56248,-7.88025 4.37865,-14.4561 6.54508,-23.69796 10.56479,-63.21618 10.56479,-103.8636 0,-29.49546 -0.0806,-29.67319 -13.13015,-28.93906 -7.703,0.43335 -8.37397,0.23515 -7.99635,-2.36198 0.33617,-2.31198 2.52073,-3.27826 11.84079,-5.23743 15.19304,-3.19374 19.65362,-3.17307 23.82787,0.11039 1.92439,1.51373 8.86142,12.28159 15.41563,23.92858 11.90397,21.15364 53.02054,90.21516 58.53546,98.3192 l 2.9165,4.28571 0.0467,-37.14286 c 0.0525,-41.80028 1.89483,-77.68808 4.34664,-84.67301 1.85997,-5.29883 5.04839,-7.47973 10.88872,-7.44797 7.20274,0.0392 8.2189,1.72403 4.92902,8.17271 -7.30599,14.32093 -11.06913,47.14084 -12.53847,109.35334 l -0.96891,41.0235 h -4.47399 c -4.2263,0 -5.19393,-1.1715 -17.47784,-21.16022 -15.30652,-24.90722 -61.14847,-101.86067 -64.23477,-107.82892 -1.17564,-2.27343 -2.36228,-3.90875 -2.63699,-3.63404 -0.27471,0.27471 -1.20717,21.38802 -2.07213,46.91847 -2.29865,67.84783 -3.86466,82.46593 -9.2173,86.03999 -0.86452,0.57725 -4.37278,1.0594 -7.79613,1.07142 -5.38952,0.019 -6.07989,-0.3134 -5.14774,-2.47812 z"
       id="path1515"
       inkscape:connector-curvature="0"
       transform="scale(0.26458333)" />
  </g>
</svg>
